<mxfile host="65bd71144e">
    <diagram name="P&amp;ID" id="ptwcyao2qoM2ukkbA5NZ">
        <mxGraphModel dx="1190" dy="184" grid="0" gridSize="10" guides="1" tooltips="0" connect="1" arrows="1" fold="1" page="1" pageScale="1" pageWidth="850" pageHeight="1100" math="1" shadow="0">
            <root>
                <mxCell id="0"/>
                <mxCell id="1" parent="0"/>
                <mxCell id="225" value="" style="edgeStyle=elbowEdgeStyle;rounded=0;orthogonalLoop=1;jettySize=auto;html=1;fillColor=#dae8fc;strokeColor=#6c8ebf;endArrow=none;endFill=0;strokeWidth=6;exitX=-0.003;exitY=0.47;exitDx=0;exitDy=0;exitPerimeter=0;" parent="1" source="E2To5tkKnf_a1yXdmPDb-52" edge="1">
                    <mxGeometry relative="1" as="geometry">
                        <mxPoint x="-641.19662" y="317" as="sourcePoint"/>
                        <mxPoint x="-719.09" y="309" as="targetPoint"/>
                        <Array as="points">
                            <mxPoint x="-719.09" y="308"/>
                            <mxPoint x="-709.09" y="308"/>
                            <mxPoint x="-669.09" y="308"/>
                        </Array>
                    </mxGeometry>
                </mxCell>
                <object label="&lt;font style=&quot;font-size: 10px;&quot;&gt;N2 Tank&amp;nbsp;&lt;br&gt;MDP: 2524 psig&lt;br&gt;Volume: 0.0078 m^3&lt;/font&gt;" Link="https://www.amazon.com/Steel-Nitrogen-Cylinder-CGA580-Valve/dp/B01E2T8IUS/ref=sr_1_5?crid=2WESMH2KI9RNC&amp;dib=eyJ2IjoiMSJ9.UkUxpWCjX_pMewvsD3aWuj7VH0FMFpE-Qej8D3Qy_5TWjO6rcDyk85D7egStnxqHOm9EhyuZyVw8PzQVLxx2BqXKHt87r-ECGiHXTchvH85RNd0Lyh9uQv5j07Gszc2COOSzBb1Kzr4LU5It0JwPMWdfnjvQmfTZt170yX2CHNJZQb2N4jqrp1obgsP2Q1avfdEmQ2bh1OXk3ycH20oFBvdlh5EYMUZTFACPb16njg9gQZ36Bxq_0iTYm9FfdrROzuzLDG5GT9aRYQk_U3DZ9kJuWKJ55UXqyBQQA-L3fQE.G-6oVPHWYk9HAKTX1KmDuQG73yr5a79DSe36juRHouM&amp;dib_tag=se&amp;keywords=nitrogen+bottle&amp;qid=1712454394&amp;sprefix=nitrogen+bottl%2Caps%2C167&amp;sr=8-5" id="E2To5tkKnf_a1yXdmPDb-1">
                    <mxCell style="shape=mxgraph.pid.vessels.gas_bottle;html=1;pointerEvents=1;align=center;verticalLabelPosition=middle;verticalAlign=middle;dashed=0;rotation=90;horizontal=0;labelPosition=center;deletable=0;" parent="1" vertex="1">
                        <mxGeometry x="-627.84" y="70" width="51.58" height="270" as="geometry"/>
                    </mxCell>
                </object>
                <mxCell id="E2To5tkKnf_a1yXdmPDb-53" value="OX-CGA-092&lt;br&gt;[Cv = 0.41]" style="text;strokeColor=none;align=center;fillColor=none;html=1;verticalAlign=middle;whiteSpace=wrap;rounded=0;" parent="1" vertex="1">
                    <mxGeometry x="-664.0400000000001" y="267" width="101" height="30" as="geometry"/>
                </mxCell>
                <mxCell id="E2To5tkKnf_a1yXdmPDb-58" value="" style="edgeStyle=none;rounded=0;orthogonalLoop=1;jettySize=auto;html=1;endArrow=none;endFill=0;fillColor=#d5e8d4;strokeColor=#82b366;strokeWidth=4;" parent="1" source="E2To5tkKnf_a1yXdmPDb-54" target="E2To5tkKnf_a1yXdmPDb-1" edge="1">
                    <mxGeometry relative="1" as="geometry"/>
                </mxCell>
                <mxCell id="E2To5tkKnf_a1yXdmPDb-62" value="" style="edgeStyle=none;rounded=0;orthogonalLoop=1;jettySize=auto;html=1;entryX=0;entryY=0.7;entryDx=0;entryDy=0;entryPerimeter=0;endArrow=none;endFill=0;fillColor=#d5e8d4;strokeColor=#82b366;strokeWidth=4;exitX=1.033;exitY=0.5;exitDx=0;exitDy=0;exitPerimeter=0;" parent="1" source="E2To5tkKnf_a1yXdmPDb-54" target="E2To5tkKnf_a1yXdmPDb-2" edge="1">
                    <mxGeometry relative="1" as="geometry">
                        <mxPoint x="-359.09000000000003" y="205" as="sourcePoint"/>
                    </mxGeometry>
                </mxCell>
                <object label="" Link="https://www.amazon.com/Nitrogen-Regulator-Delivery-Pressure-Connection/dp/B09FXSDTFY/ref=sr_1_3?crid=G27DYCH0MPOZ&amp;dib=eyJ2IjoiMSJ9.Lq7QIqGfdrRxSxRGbSKEU6oSiAX9KeUwS6EHVtj2S_RL9L2_j2Ai_peP1tUTwHRVN996UOTuWCjjLsvRcK3N4jYDwkdgPqPNmFmMtd5JlGyBC-RiHSnGRXJoK8-u5eqjYA5QrYS6ZTl-SfkXuQDr5otvYiiGggtycuHNocbrk8AIneW-0yb1LC3XBkVLJ6ootoulUTr2-xBrEG9LyLUmLDnTAVdAoVVOUjTW511xFSk.2qhXxcZJ6CV33U5DYMhOkbqOTIol5RuQ72cMtMPOlyI&amp;dib_tag=se&amp;keywords=0-400psig+regulator&amp;qid=1712455248&amp;sprefix=0-400ps+regulator%2Caps%2C228&amp;sr=8-3" id="E2To5tkKnf_a1yXdmPDb-10">
                    <mxCell style="group;rotation=90;" parent="1" vertex="1" connectable="0">
                        <mxGeometry x="-247.84000000000003" y="167" width="40" height="50" as="geometry"/>
                    </mxCell>
                </object>
                <mxCell id="E2To5tkKnf_a1yXdmPDb-2" value="N2-REG-015&lt;br&gt;[0-400psig]" style="verticalLabelPosition=bottom;align=center;html=1;verticalAlign=top;pointerEvents=1;dashed=0;shape=mxgraph.pid2valves.valve;valveType=gate;actuator=diaph;points=[[0,0.7,0,0,0],[1,0.7,0,0,0]];" parent="E2To5tkKnf_a1yXdmPDb-10" vertex="1">
                    <mxGeometry y="10" width="40" height="40" as="geometry"/>
                </mxCell>
                <mxCell id="E2To5tkKnf_a1yXdmPDb-6" value="" style="endArrow=none;html=1;rounded=0;exitX=0.501;exitY=0.11;exitDx=0;exitDy=0;exitPerimeter=0;" parent="E2To5tkKnf_a1yXdmPDb-10" source="E2To5tkKnf_a1yXdmPDb-2" edge="1">
                    <mxGeometry width="50" height="50" relative="1" as="geometry">
                        <mxPoint x="100" y="40" as="sourcePoint"/>
                        <mxPoint x="20" as="targetPoint"/>
                    </mxGeometry>
                </mxCell>
                <mxCell id="E2To5tkKnf_a1yXdmPDb-7" value="" style="endArrow=none;html=1;rounded=0;" parent="E2To5tkKnf_a1yXdmPDb-10" edge="1">
                    <mxGeometry width="50" height="50" relative="1" as="geometry">
                        <mxPoint x="40" as="sourcePoint"/>
                        <mxPoint x="20" as="targetPoint"/>
                    </mxGeometry>
                </mxCell>
                <mxCell id="E2To5tkKnf_a1yXdmPDb-8" value="" style="endArrow=none;html=1;rounded=0;" parent="E2To5tkKnf_a1yXdmPDb-10" edge="1">
                    <mxGeometry width="50" height="50" relative="1" as="geometry">
                        <mxPoint x="40" y="20" as="sourcePoint"/>
                        <mxPoint x="40" as="targetPoint"/>
                    </mxGeometry>
                </mxCell>
                <mxCell id="E2To5tkKnf_a1yXdmPDb-9" value="" style="endArrow=none;html=1;rounded=0;exitX=0.501;exitY=0.691;exitDx=0;exitDy=0;exitPerimeter=0;" parent="E2To5tkKnf_a1yXdmPDb-10" source="E2To5tkKnf_a1yXdmPDb-2" edge="1">
                    <mxGeometry width="50" height="50" relative="1" as="geometry">
                        <mxPoint x="50" y="30" as="sourcePoint"/>
                        <mxPoint x="40" y="20" as="targetPoint"/>
                    </mxGeometry>
                </mxCell>
                <mxCell id="E2To5tkKnf_a1yXdmPDb-14" style="edgeStyle=none;rounded=0;orthogonalLoop=1;jettySize=auto;html=1;entryX=0;entryY=0.5;entryDx=0;entryDy=0;entryPerimeter=0;" parent="E2To5tkKnf_a1yXdmPDb-10" source="E2To5tkKnf_a1yXdmPDb-2" target="E2To5tkKnf_a1yXdmPDb-2" edge="1">
                    <mxGeometry relative="1" as="geometry"/>
                </mxCell>
                <mxCell id="324" value="" style="edgeStyle=none;rounded=0;orthogonalLoop=1;jettySize=auto;html=1;endArrow=none;endFill=0;fillColor=#d5e8d4;strokeColor=#82b366;strokeWidth=1;entryX=0.5;entryY=0;entryDx=0;entryDy=0;entryPerimeter=0;" parent="E2To5tkKnf_a1yXdmPDb-10" edge="1">
                    <mxGeometry relative="1" as="geometry">
                        <mxPoint x="-0.4199999999999591" y="30" as="sourcePoint"/>
                        <mxPoint x="-0.42000000000018645" y="10" as="targetPoint"/>
                    </mxGeometry>
                </mxCell>
                <object label="N2-CGA-011" Cv="0.678" Link="https://allsafe.net/shop/valves/inert-gas-valves/cga580-inert-gas-valve-3-4-ngt-3360-psi-004-oversize/" IN_BOM="False" id="E2To5tkKnf_a1yXdmPDb-54">
                    <mxCell style="verticalLabelPosition=bottom;align=center;html=1;verticalAlign=top;pointerEvents=1;dashed=0;shape=mxgraph.pid2valves.valve;valveType=needle;rotation=0;fillColor=#000000;" parent="1" vertex="1">
                        <mxGeometry x="-446.84" y="195" width="33.33" height="20" as="geometry"/>
                    </mxCell>
                </object>
                <mxCell id="17" value="" style="edgeStyle=none;rounded=1;html=1;strokeWidth=8;fontSize=2;endArrow=none;endFill=0;entryX=0;entryY=0.7;entryDx=0;entryDy=0;entryPerimeter=0;fillColor=#f8cecc;strokeColor=#b85450;startArrow=none;" parent="1" source="7" target="14" edge="1">
                    <mxGeometry relative="1" as="geometry">
                        <mxPoint x="-179.09000000000015" y="536" as="sourcePoint"/>
                    </mxGeometry>
                </mxCell>
                <object label="&lt;font style=&quot;font-size: 10px;&quot;&gt;IPA TANK&lt;br&gt;MDP: 200psig&lt;br&gt;Volume:&amp;nbsp;0.0114 m^3&lt;/font&gt;" Link="https://www.amazon.com/Kegco-I22-580-Nitrogen-Pressure-Aluminum/dp/B0037B3BLE/ref=sr_1_5?crid=189FJLK5VGD7V&amp;dib=eyJ2IjoiMSJ9.kKSaQLcCbBU_4ziaPGCH2pR_W19GQ_DGJ5qfe-3U96PqgCmT5-hMFpHKlijd49UHP8OPYMHDaqxQoMUKcnowXHZxP1YaVax5w0Qhiz9s8x3gLI67C8EK9CvOppyQf30dG5BEmC50MKXVcQognfPkfIv-Oytoeifr2dkRyF9ptHGS6GQiwGqs2_PFLeqv2wRFL3RX3XV2_OJZdPbUVhowm7x9uLSdsG4rI_gyWCZ-g7g9BdLO8fGXbS_fez6ppWc3t80pHmG13wHMQcwG-UsR3aQb4DLdKlmWC_uVWvvVzsM.F5SNlG_caipPtgKYApMQqfA0-bVt0L3i1NSasG_ge0Q&amp;dib_tag=se&amp;keywords=aluminum+nitrogen+tank&amp;qid=1712515315&amp;sprefix=aluminum+nitrogen+ta%2Caps%2C324&amp;sr=8-5" id="7">
                    <mxCell style="shape=mxgraph.pid.vessels.pressurized_vessel;html=1;pointerEvents=1;align=center;verticalLabelPosition=middle;verticalAlign=middle;dashed=0;horizontal=1;labelPosition=center;" parent="1" vertex="1">
                        <mxGeometry x="-229.09000000000003" y="295" width="100" height="201" as="geometry"/>
                    </mxCell>
                </object>
                <mxCell id="11" value="N2-BD-010" style="group;verticalAlign=bottom;horizontal=1;labelPosition=center;verticalLabelPosition=top;align=center;" parent="1" vertex="1" connectable="0">
                    <mxGeometry x="-477.09000000000003" y="176" width="29.890000000000043" height="7" as="geometry"/>
                </mxCell>
                <mxCell id="8" value="" style="endArrow=none;html=1;strokeWidth=1;rounded=1;" parent="11" edge="1">
                    <mxGeometry width="50" height="50" relative="1" as="geometry">
                        <mxPoint y="7" as="sourcePoint"/>
                        <mxPoint x="10" y="7" as="targetPoint"/>
                    </mxGeometry>
                </mxCell>
                <mxCell id="9" value="" style="endArrow=none;html=1;strokeWidth=1;fontSize=2;" parent="11" edge="1">
                    <mxGeometry width="50" height="50" relative="1" as="geometry">
                        <mxPoint x="19.890000000000043" y="7" as="sourcePoint"/>
                        <mxPoint x="29.890000000000043" y="7" as="targetPoint"/>
                    </mxGeometry>
                </mxCell>
                <mxCell id="10" value="" style="verticalLabelPosition=bottom;verticalAlign=top;html=1;shape=mxgraph.basic.half_circle;rotation=-180;" parent="11" vertex="1">
                    <mxGeometry x="7" width="14" height="7" as="geometry"/>
                </mxCell>
                <mxCell id="12" value="" style="edgeStyle=none;rounded=0;orthogonalLoop=1;jettySize=auto;html=1;endArrow=none;endFill=0;fillColor=#d5e8d4;strokeColor=#82b366;strokeWidth=1;entryX=0.5;entryY=0;entryDx=0;entryDy=0;entryPerimeter=0;" parent="1" target="10" edge="1">
                    <mxGeometry relative="1" as="geometry">
                        <mxPoint x="-463.09000000000003" y="203" as="sourcePoint"/>
                        <mxPoint x="-457.05000000000007" y="215.00000000000003" as="targetPoint"/>
                    </mxGeometry>
                </mxCell>
                <mxCell id="68" value="" style="edgeStyle=orthogonalEdgeStyle;rounded=0;orthogonalLoop=1;jettySize=auto;html=1;fillColor=#dae8fc;strokeColor=#6c8ebf;endArrow=none;endFill=0;strokeWidth=4;exitX=1.032;exitY=0.674;exitDx=0;exitDy=0;exitPerimeter=0;" parent="1" source="18" edge="1">
                    <mxGeometry relative="1" as="geometry">
                        <mxPoint x="-589.09" y="639" as="sourcePoint"/>
                        <mxPoint x="-439.09000000000003" y="748" as="targetPoint"/>
                        <Array as="points">
                            <mxPoint x="-589" y="581"/>
                            <mxPoint x="-589" y="688"/>
                            <mxPoint x="-439" y="688"/>
                        </Array>
                    </mxGeometry>
                </mxCell>
                <mxCell id="69" value="" style="edgeStyle=orthogonalEdgeStyle;rounded=0;orthogonalLoop=1;jettySize=auto;html=1;fillColor=#dae8fc;strokeColor=#6c8ebf;endArrow=none;endFill=0;strokeWidth=6;" parent="1" edge="1">
                    <mxGeometry relative="1" as="geometry">
                        <mxPoint x="-419.09000000000003" y="808" as="sourcePoint"/>
                        <mxPoint x="-439.09000000000003" y="768" as="targetPoint"/>
                        <Array as="points">
                            <mxPoint x="-439.09000000000003" y="808"/>
                        </Array>
                    </mxGeometry>
                </mxCell>
                <mxCell id="71" value="" style="edgeStyle=orthogonalEdgeStyle;rounded=0;orthogonalLoop=1;jettySize=auto;html=1;fillColor=#f8cecc;strokeColor=#b85450;endArrow=none;endFill=0;strokeWidth=6;" parent="1" edge="1">
                    <mxGeometry relative="1" as="geometry">
                        <mxPoint x="-379.09000000000003" y="808" as="sourcePoint"/>
                        <mxPoint x="-359.09000000000003" y="768" as="targetPoint"/>
                        <Array as="points">
                            <mxPoint x="-359.09000000000003" y="808"/>
                        </Array>
                    </mxGeometry>
                </mxCell>
                <mxCell id="55" value="" style="group;rotation=90;" parent="1" vertex="1" connectable="0">
                    <mxGeometry x="-449.09000000000003" y="743" width="20" height="30" as="geometry"/>
                </mxCell>
                <mxCell id="43" value="" style="endArrow=none;html=1;rounded=1;strokeWidth=1;fontSize=2;" parent="55" edge="1">
                    <mxGeometry width="50" height="50" relative="1" as="geometry">
                        <mxPoint x="5" y="5" as="sourcePoint"/>
                        <mxPoint x="15" y="5" as="targetPoint"/>
                    </mxGeometry>
                </mxCell>
                <mxCell id="52" value="" style="endArrow=none;html=1;rounded=1;strokeWidth=1;fontSize=2;" parent="55" edge="1">
                    <mxGeometry width="50" height="50" relative="1" as="geometry">
                        <mxPoint x="-5" y="15" as="sourcePoint"/>
                        <mxPoint x="25" y="15" as="targetPoint"/>
                    </mxGeometry>
                </mxCell>
                <mxCell id="53" value="" style="endArrow=none;html=1;rounded=1;strokeWidth=1;fontSize=2;" parent="55" edge="1">
                    <mxGeometry width="50" height="50" relative="1" as="geometry">
                        <mxPoint x="5" y="25" as="sourcePoint"/>
                        <mxPoint x="15" y="25" as="targetPoint"/>
                    </mxGeometry>
                </mxCell>
                <mxCell id="72" value="" style="edgeStyle=orthogonalEdgeStyle;rounded=0;orthogonalLoop=1;jettySize=auto;html=1;fillColor=#f8cecc;strokeColor=#b85450;endArrow=none;endFill=0;strokeWidth=6;" parent="1" edge="1">
                    <mxGeometry relative="1" as="geometry">
                        <mxPoint x="-358" y="746" as="sourcePoint"/>
                        <mxPoint x="-180" y="602" as="targetPoint"/>
                        <Array as="points">
                            <mxPoint x="-357" y="746"/>
                            <mxPoint x="-357" y="690"/>
                            <mxPoint x="-178" y="690"/>
                        </Array>
                    </mxGeometry>
                </mxCell>
                <mxCell id="56" value="" style="group;rotation=90;" parent="1" vertex="1" connectable="0">
                    <mxGeometry x="-369.09000000000003" y="743" width="20" height="30" as="geometry"/>
                </mxCell>
                <mxCell id="57" value="" style="endArrow=none;html=1;rounded=1;strokeWidth=1;fontSize=2;" parent="56" edge="1">
                    <mxGeometry width="50" height="50" relative="1" as="geometry">
                        <mxPoint x="5" y="5" as="sourcePoint"/>
                        <mxPoint x="15" y="5" as="targetPoint"/>
                    </mxGeometry>
                </mxCell>
                <mxCell id="58" value="" style="endArrow=none;html=1;rounded=1;strokeWidth=1;fontSize=2;" parent="56" edge="1">
                    <mxGeometry width="50" height="50" relative="1" as="geometry">
                        <mxPoint x="-5" y="15" as="sourcePoint"/>
                        <mxPoint x="25" y="15" as="targetPoint"/>
                    </mxGeometry>
                </mxCell>
                <mxCell id="59" value="" style="endArrow=none;html=1;rounded=1;strokeWidth=1;fontSize=2;" parent="56" edge="1">
                    <mxGeometry width="50" height="50" relative="1" as="geometry">
                        <mxPoint x="5" y="25" as="sourcePoint"/>
                        <mxPoint x="15" y="25" as="targetPoint"/>
                    </mxGeometry>
                </mxCell>
                <mxCell id="73" value="" style="shape=ext;double=0;rounded=1;whiteSpace=wrap;html=1;fontSize=2;gradientColor=default;fillColor=none;dashed=1;perimeterSpacing=0;" parent="1" vertex="1">
                    <mxGeometry x="-499.09000000000003" y="718" width="200" height="80" as="geometry"/>
                </mxCell>
                <mxCell id="79" value="" style="edgeStyle=elbowEdgeStyle;rounded=0;orthogonalLoop=1;jettySize=auto;html=1;fillColor=#dae8fc;strokeColor=#6c8ebf;endArrow=none;endFill=0;strokeWidth=4;exitX=1;exitY=0.7;exitDx=0;exitDy=0;exitPerimeter=0;" parent="1" edge="1">
                    <mxGeometry relative="1" as="geometry">
                        <mxPoint x="-462.1" y="640" as="sourcePoint"/>
                        <mxPoint x="-589.09" y="648" as="targetPoint"/>
                        <Array as="points">
                            <mxPoint x="-462.09000000000003" y="628"/>
                        </Array>
                    </mxGeometry>
                </mxCell>
                <mxCell id="80" value="" style="edgeStyle=orthogonalEdgeStyle;rounded=0;orthogonalLoop=1;jettySize=auto;html=1;fillColor=#f8cecc;strokeColor=#b85450;endArrow=none;endFill=0;strokeWidth=4;exitX=1.013;exitY=0.489;exitDx=0;exitDy=0;exitPerimeter=0;" parent="1" source="78" edge="1">
                    <mxGeometry relative="1" as="geometry">
                        <mxPoint x="-338.27" y="623" as="sourcePoint"/>
                        <mxPoint x="-179.09000000000003" y="648" as="targetPoint"/>
                        <Array as="points">
                            <mxPoint x="-338.09000000000003" y="648"/>
                        </Array>
                    </mxGeometry>
                </mxCell>
                <mxCell id="88" value="" style="edgeStyle=orthogonalEdgeStyle;rounded=0;orthogonalLoop=1;jettySize=auto;html=1;endArrow=none;endFill=0;fillColor=#d5e8d4;strokeColor=#82b366;strokeWidth=4;entryX=-0.026;entryY=0.474;entryDx=0;entryDy=0;entryPerimeter=0;" parent="1" edge="1" target="469">
                    <mxGeometry relative="1" as="geometry">
                        <mxPoint x="-399.09000000000003" y="498" as="sourcePoint"/>
                        <mxPoint x="-461.69000000000005" y="608" as="targetPoint"/>
                        <Array as="points">
                            <mxPoint x="-399" y="548"/>
                            <mxPoint x="-461" y="548"/>
                        </Array>
                    </mxGeometry>
                </mxCell>
                <mxCell id="89" value="" style="edgeStyle=orthogonalEdgeStyle;rounded=0;orthogonalLoop=1;jettySize=auto;html=1;endArrow=none;endFill=0;fillColor=#d5e8d4;strokeColor=#82b366;strokeWidth=4;" parent="1" edge="1">
                    <mxGeometry relative="1" as="geometry">
                        <mxPoint x="-399.09000000000003" y="498" as="sourcePoint"/>
                        <mxPoint x="-339.09000000000003" y="608" as="targetPoint"/>
                        <Array as="points">
                            <mxPoint x="-399.09000000000003" y="508"/>
                            <mxPoint x="-399.09000000000003" y="548"/>
                            <mxPoint x="-339.09000000000003" y="548"/>
                        </Array>
                    </mxGeometry>
                </mxCell>
                <mxCell id="141" value="F-V-052&lt;br&gt;[Cv = 11.67]" style="text;strokeColor=none;align=center;fillColor=none;html=1;verticalAlign=middle;whiteSpace=wrap;rounded=0;" parent="1" vertex="1">
                    <mxGeometry x="-155.09000000000003" y="566" width="97.21" height="30" as="geometry"/>
                </mxCell>
                <mxCell id="142" value="" style="edgeStyle=orthogonalEdgeStyle;rounded=0;orthogonalLoop=1;jettySize=auto;html=1;endArrow=none;endFill=0;fillColor=#d5e8d4;strokeColor=#82b366;strokeWidth=4;entryX=0.021;entryY=0.699;entryDx=0;entryDy=0;entryPerimeter=0;" parent="1" target="82" edge="1">
                    <mxGeometry relative="1" as="geometry">
                        <mxPoint x="-180" y="241" as="sourcePoint"/>
                        <mxPoint x="-399.09000000000003" y="458" as="targetPoint"/>
                        <Array as="points">
                            <mxPoint x="-180" y="244"/>
                            <mxPoint x="-180" y="266"/>
                            <mxPoint x="-399" y="266"/>
                        </Array>
                    </mxGeometry>
                </mxCell>
                <mxCell id="155" value="" style="edgeStyle=elbowEdgeStyle;rounded=0;orthogonalLoop=1;jettySize=auto;html=1;entryX=0.025;entryY=0.702;entryDx=0;entryDy=0;entryPerimeter=0;fillColor=#dae8fc;strokeColor=#6c8ebf;endArrow=none;endFill=0;strokeWidth=6;exitX=0.986;exitY=0.509;exitDx=0;exitDy=0;exitPerimeter=0;" parent="1" source="E2To5tkKnf_a1yXdmPDb-52" target="18" edge="1">
                    <mxGeometry relative="1" as="geometry">
                        <mxPoint x="-588.3308330685968" y="453.8550000000001" as="sourcePoint"/>
                        <mxPoint x="-556.0183333333333" y="546.9951833333332" as="targetPoint"/>
                        <Array as="points">
                            <mxPoint x="-589.09" y="492.19"/>
                        </Array>
                    </mxGeometry>
                </mxCell>
                <mxCell id="77" value="" style="verticalLabelPosition=bottom;align=center;html=1;verticalAlign=top;pointerEvents=1;dashed=0;shape=mxgraph.pid2valves.valve;valveType=check;rounded=1;strokeWidth=2;fontSize=2;fillColor=none;gradientColor=default;rotation=90;" parent="1" vertex="1">
                    <mxGeometry x="-477.09000000000003" y="614" width="30" height="20" as="geometry"/>
                </mxCell>
                <mxCell id="78" value="" style="verticalLabelPosition=bottom;align=center;html=1;verticalAlign=top;pointerEvents=1;dashed=0;shape=mxgraph.pid2valves.valve;valveType=check;rounded=1;strokeWidth=2;fontSize=2;fillColor=none;gradientColor=default;rotation=90;" parent="1" vertex="1">
                    <mxGeometry x="-353.09000000000003" y="614" width="30" height="20" as="geometry"/>
                </mxCell>
                <mxCell id="82" value="" style="verticalLabelPosition=bottom;align=center;html=1;verticalAlign=top;pointerEvents=1;dashed=0;shape=mxgraph.pid2valves.valve;valveType=gate;actuator=solenoid;fontSize=2;rotation=90;points=[[0.3,0,0,0,0],[0.3,1,0,0,0]];fillColor=#141414;fontColor=#333333;strokeColor=#FFFFFF;" parent="1" vertex="1">
                    <mxGeometry x="-411.2" y="462" width="40" height="40" as="geometry"/>
                </mxCell>
                <mxCell id="E2To5tkKnf_a1yXdmPDb-52" value="" style="verticalLabelPosition=bottom;align=center;html=1;verticalAlign=top;pointerEvents=1;dashed=0;shape=mxgraph.pid2valves.valve;valveType=needle;rotation=0;strokeColor=#FFFFFF;gradientColor=default;fillColor=#141414;" parent="1" vertex="1">
                    <mxGeometry x="-630.2" y="299" width="33.33" height="20" as="geometry"/>
                </mxCell>
                <mxCell id="177" value="" style="edgeStyle=none;rounded=0;orthogonalLoop=1;jettySize=auto;html=1;endArrow=none;endFill=0;fillColor=#dae8fc;strokeColor=#6c8ebf;strokeWidth=1;" parent="1" edge="1">
                    <mxGeometry relative="1" as="geometry">
                        <mxPoint x="-508.09000000000003" y="714" as="sourcePoint"/>
                        <mxPoint x="-441.09000000000003" y="714" as="targetPoint"/>
                    </mxGeometry>
                </mxCell>
                <mxCell id="184" value="" style="edgeStyle=none;rounded=0;orthogonalLoop=1;jettySize=auto;html=1;endArrow=none;endFill=0;fillColor=#dae8fc;strokeColor=#6c8ebf;strokeWidth=1;" parent="1" edge="1">
                    <mxGeometry relative="1" as="geometry">
                        <mxPoint x="-503.09000000000003" y="714" as="sourcePoint"/>
                        <mxPoint x="-503.20000000000005" y="779.9999999999999" as="targetPoint"/>
                    </mxGeometry>
                </mxCell>
                <mxCell id="191" value="" style="edgeStyle=none;rounded=0;orthogonalLoop=1;jettySize=auto;html=1;endArrow=none;endFill=0;fillColor=#f8cecc;strokeColor=#b85450;strokeWidth=1;" parent="1" edge="1">
                    <mxGeometry relative="1" as="geometry">
                        <mxPoint x="-287.09000000000003" y="716" as="sourcePoint"/>
                        <mxPoint x="-358.09000000000003" y="716" as="targetPoint"/>
                    </mxGeometry>
                </mxCell>
                <mxCell id="198" value="" style="edgeStyle=none;rounded=0;orthogonalLoop=1;jettySize=auto;html=1;endArrow=none;endFill=0;fillColor=#f8cecc;strokeColor=#b85450;strokeWidth=1;" parent="1" edge="1">
                    <mxGeometry relative="1" as="geometry">
                        <mxPoint x="-292.09000000000003" y="782" as="sourcePoint"/>
                        <mxPoint x="-292.09000000000003" y="716" as="targetPoint"/>
                    </mxGeometry>
                </mxCell>
                <mxCell id="209" value="&lt;span style=&quot;&quot;&gt;N2-V-020&lt;br&gt;[Cv = 2.33]&lt;br&gt;&lt;/span&gt;" style="text;strokeColor=none;align=center;fillColor=none;html=1;verticalAlign=middle;whiteSpace=wrap;rounded=0;rotation=0;" parent="1" vertex="1">
                    <mxGeometry x="-499.09000000000003" y="467" width="100" height="30" as="geometry"/>
                </mxCell>
                <mxCell id="227" value="" style="group" parent="1" vertex="1" connectable="0">
                    <mxGeometry x="-763.1949999999999" y="299" width="143.995" height="140" as="geometry"/>
                </mxCell>
                <object label="" Price="350" Cv="0.698****" Volume_cuft="0.23663194" MAWP_psia="1100***** double check this" Link="https://www.nitrousexpress.com/10lb-bottle-lightning-500-valve-6an-nipple-11100-6.asp" id="E2To5tkKnf_a1yXdmPDb-16">
                    <mxCell style="shape=mxgraph.pid.vessels.gas_bottle;html=1;pointerEvents=1;align=center;verticalLabelPosition=middle;verticalAlign=middle;dashed=0;rotation=-360;horizontal=0;labelPosition=center;deletable=0;textDirection=ltr;" parent="227" vertex="1">
                        <mxGeometry x="-3" width="86" height="140" as="geometry"/>
                    </mxCell>
                </object>
                <mxCell id="E2To5tkKnf_a1yXdmPDb-17" value="N2O &lt;br&gt;Tank&lt;br&gt;MAWP: &amp;lt;1200psia&lt;br&gt;Mass: 20lbm&lt;br&gt;" style="text;strokeColor=none;align=center;fillColor=none;html=1;verticalAlign=middle;whiteSpace=wrap;rounded=0;rotation=0;" parent="227" vertex="1">
                    <mxGeometry x="7.105427357601002e-15" y="60.000000000000014" width="79.99999999999999" height="30" as="geometry"/>
                </mxCell>
                <mxCell id="E2To5tkKnf_a1yXdmPDb-65" style="edgeStyle=none;rounded=0;orthogonalLoop=1;jettySize=auto;html=1;entryX=0.485;entryY=0.005;entryDx=0;entryDy=0;entryPerimeter=0;" parent="227" source="E2To5tkKnf_a1yXdmPDb-16" target="E2To5tkKnf_a1yXdmPDb-16" edge="1">
                    <mxGeometry relative="1" as="geometry"/>
                </mxCell>
                <mxCell id="223" value="OX-G-091" style="text;strokeColor=none;align=center;fillColor=none;html=1;verticalAlign=middle;whiteSpace=wrap;rounded=0;" parent="1" vertex="1">
                    <mxGeometry x="-726.32" y="255" width="83.79" height="30" as="geometry"/>
                </mxCell>
                <mxCell id="258" value="" style="group" parent="1" vertex="1" connectable="0">
                    <mxGeometry x="-735.09" y="439" width="20" height="30" as="geometry"/>
                </mxCell>
                <mxCell id="256" value="" style="group;strokeColor=default;" parent="258" vertex="1" connectable="0">
                    <mxGeometry x="2.3762932957027374" y="13.256293295702733" width="15.23741340859452" height="14.747413408594468" as="geometry"/>
                </mxCell>
                <mxCell id="252" value="" style="pointerEvents=1;verticalLabelPosition=bottom;shadow=0;dashed=0;align=center;html=1;verticalAlign=top;shape=mxgraph.electrical.resistors.resistor_2;rotation=45;strokeColor=default;" parent="256" vertex="1">
                    <mxGeometry x="5.763706704297263" y="3.3237067042972512" width="10.25" height="2.05" as="geometry"/>
                </mxCell>
                <mxCell id="253" value="" style="pointerEvents=1;verticalLabelPosition=bottom;shadow=0;dashed=0;align=center;html=1;verticalAlign=top;shape=mxgraph.electrical.resistors.resistor_2;rotation=-225;strokeColor=default;" parent="256" vertex="1">
                    <mxGeometry x="5.763706704297263" y="9.373706704297263" width="10.25" height="2.05" as="geometry"/>
                </mxCell>
                <mxCell id="254" value="" style="pointerEvents=1;verticalLabelPosition=bottom;shadow=0;dashed=0;align=center;html=1;verticalAlign=top;shape=mxgraph.electrical.resistors.resistor_2;rotation=-135;strokeColor=default;" parent="256" vertex="1">
                    <mxGeometry x="-0.7762932957027431" y="9.373706704297263" width="10.25" height="2.05" as="geometry"/>
                </mxCell>
                <mxCell id="255" value="" style="pointerEvents=1;verticalLabelPosition=bottom;shadow=0;dashed=0;align=center;html=1;verticalAlign=top;shape=mxgraph.electrical.resistors.resistor_2;rotation=-45;strokeColor=default;" parent="256" vertex="1">
                    <mxGeometry x="-0.7762932957027431" y="3.3237067042972512" width="10.25" height="2.05" as="geometry"/>
                </mxCell>
                <mxCell id="244" value="" style="endArrow=none;html=1;" parent="258" edge="1">
                    <mxGeometry width="50" height="50" relative="1" as="geometry">
                        <mxPoint x="10" y="13" as="sourcePoint"/>
                        <mxPoint x="10" as="targetPoint"/>
                    </mxGeometry>
                </mxCell>
                <mxCell id="250" value="" style="endArrow=none;html=1;strokeColor=default;" parent="258" edge="1">
                    <mxGeometry width="50" height="50" relative="1" as="geometry">
                        <mxPoint x="20" y="30" as="sourcePoint"/>
                        <mxPoint y="30" as="targetPoint"/>
                    </mxGeometry>
                </mxCell>
                <mxCell id="259" value="&lt;span style=&quot;&quot;&gt;OX-LC-A/B/C/D&lt;/span&gt;" style="text;strokeColor=none;align=center;fillColor=none;html=1;verticalAlign=middle;whiteSpace=wrap;rounded=0;rotation=0;" parent="1" vertex="1">
                    <mxGeometry x="-717.2" y="445" width="100" height="30" as="geometry"/>
                </mxCell>
                <mxCell id="266" value="" style="endArrow=none;html=1;entryX=0.5;entryY=1;entryDx=0;entryDy=0;dashed=1;dashPattern=8 8;strokeWidth=0.5;" parent="1" target="73" edge="1">
                    <mxGeometry width="50" height="50" relative="1" as="geometry">
                        <mxPoint x="-399.09000000000003" y="695" as="sourcePoint"/>
                        <mxPoint x="-399.09000000000003" y="708" as="targetPoint"/>
                        <Array as="points">
                            <mxPoint x="-399.09000000000003" y="738"/>
                        </Array>
                    </mxGeometry>
                </mxCell>
                <mxCell id="76" value="Injector" style="text;strokeColor=none;align=center;fillColor=none;html=1;verticalAlign=middle;whiteSpace=wrap;rounded=0;" parent="1" vertex="1">
                    <mxGeometry x="-518.085" y="713" width="97.21" height="30" as="geometry"/>
                </mxCell>
                <mxCell id="14" value="" style="verticalLabelPosition=bottom;align=center;html=1;verticalAlign=top;pointerEvents=1;dashed=0;shape=mxgraph.pid2valves.valve;valveType=gate;actuator=solenoid;fontSize=2;rotation=90;points=[[0,0.7,0,0,0],[1,0.7,0,60,0]];fillColor=#141414;" parent="1" vertex="1">
                    <mxGeometry x="-191.09000000000003" y="561" width="40" height="40" as="geometry"/>
                </mxCell>
                <mxCell id="325" value="" style="edgeStyle=none;rounded=0;orthogonalLoop=1;jettySize=auto;html=1;endArrow=none;endFill=0;fillColor=#d5e8d4;strokeColor=#82b366;strokeWidth=1;entryX=0.5;entryY=0;entryDx=0;entryDy=0;entryPerimeter=0;" parent="1" edge="1">
                    <mxGeometry relative="1" as="geometry">
                        <mxPoint x="-180" y="205" as="sourcePoint"/>
                        <mxPoint x="-180" y="176" as="targetPoint"/>
                    </mxGeometry>
                </mxCell>
                <mxCell id="331" value="" style="edgeStyle=orthogonalEdgeStyle;rounded=0;orthogonalLoop=1;jettySize=auto;html=1;endArrow=none;endFill=0;fillColor=#dae8fc;strokeColor=#6c8ebf;strokeWidth=1;exitX=0.283;exitY=0.067;exitDx=0;exitDy=0;exitPerimeter=0;" parent="1" source="E2To5tkKnf_a1yXdmPDb-16" edge="1">
                    <mxGeometry relative="1" as="geometry">
                        <mxPoint x="-751.09" y="297" as="sourcePoint"/>
                        <mxPoint x="-751.09" y="284" as="targetPoint"/>
                    </mxGeometry>
                </mxCell>
                <mxCell id="221" value="" style="group" parent="1" vertex="1" connectable="0">
                    <mxGeometry x="-803" y="260" width="112.07" height="30" as="geometry"/>
                </mxCell>
                <mxCell id="222" value="" style="verticalLabelPosition=bottom;aspect=fixed;html=1;verticalAlign=top;fillColor=strokeColor;align=center;outlineConnect=0;shape=mxgraph.fluid_power.x11820;points=[[0.5,1,0]];rotation=0;" parent="221" vertex="1">
                    <mxGeometry x="110.25" y="20.5" width="16.64" height="25" as="geometry"/>
                </mxCell>
                <mxCell id="326" value="OX-BD-090" style="group;verticalAlign=bottom;horizontal=1;labelPosition=center;verticalLabelPosition=top;align=center;" parent="221" vertex="1" connectable="0">
                    <mxGeometry x="38.019999999999996" y="18" width="29.890000000000043" height="7" as="geometry"/>
                </mxCell>
                <mxCell id="327" value="" style="endArrow=none;html=1;strokeWidth=1;rounded=1;" parent="326" edge="1">
                    <mxGeometry width="50" height="50" relative="1" as="geometry">
                        <mxPoint y="7" as="sourcePoint"/>
                        <mxPoint x="10" y="7" as="targetPoint"/>
                    </mxGeometry>
                </mxCell>
                <mxCell id="328" value="" style="endArrow=none;html=1;strokeWidth=1;fontSize=2;" parent="326" edge="1">
                    <mxGeometry width="50" height="50" relative="1" as="geometry">
                        <mxPoint x="19.890000000000043" y="7" as="sourcePoint"/>
                        <mxPoint x="29.890000000000043" y="7" as="targetPoint"/>
                    </mxGeometry>
                </mxCell>
                <mxCell id="329" value="" style="verticalLabelPosition=bottom;verticalAlign=top;html=1;shape=mxgraph.basic.half_circle;rotation=-180;" parent="326" vertex="1">
                    <mxGeometry x="7" width="14" height="7" as="geometry"/>
                </mxCell>
                <mxCell id="342" value="N2-CV-021-A/B&lt;br&gt;[Cv = 0.77]" style="text;strokeColor=none;align=center;fillColor=none;html=1;verticalAlign=middle;whiteSpace=wrap;rounded=0;" parent="1" vertex="1">
                    <mxGeometry x="-560.26" y="591" width="97.21" height="30" as="geometry"/>
                </mxCell>
                <mxCell id="343" value="N2-CV-022&lt;br&gt;[Cv = 1.1]" style="text;strokeColor=none;align=center;fillColor=none;html=1;verticalAlign=middle;whiteSpace=wrap;rounded=0;" parent="1" vertex="1">
                    <mxGeometry x="-341.69000000000005" y="609" width="97.21" height="30" as="geometry"/>
                </mxCell>
                <mxCell id="354" value="" style="edgeStyle=orthogonalEdgeStyle;rounded=0;orthogonalLoop=1;jettySize=auto;html=1;endArrow=none;endFill=0;fillColor=#d5e8d4;strokeColor=#82b366;strokeWidth=4;exitX=1;exitY=0.7;exitDx=0;exitDy=0;exitPerimeter=0;entryX=0.507;entryY=1.001;entryDx=0;entryDy=0;entryPerimeter=0;" parent="1" target="346" edge="1">
                    <mxGeometry relative="1" as="geometry">
                        <mxPoint x="-208.61" y="205" as="sourcePoint"/>
                        <mxPoint x="-179.8843902439022" y="280" as="targetPoint"/>
                        <Array as="points">
                            <mxPoint x="-99.09000000000003" y="205"/>
                        </Array>
                    </mxGeometry>
                </mxCell>
                <mxCell id="357" value="" style="edgeStyle=none;rounded=1;html=1;strokeWidth=8;fontSize=2;endArrow=none;endFill=0;fillColor=#f8cecc;strokeColor=#b85450;startArrow=none;" parent="1" edge="1">
                    <mxGeometry relative="1" as="geometry">
                        <mxPoint x="-124" y="529" as="sourcePoint"/>
                        <mxPoint x="-177" y="529" as="targetPoint"/>
                    </mxGeometry>
                </mxCell>
                <mxCell id="360" value="" style="edgeStyle=none;rounded=1;html=1;strokeWidth=8;fontSize=2;endArrow=none;endFill=0;fillColor=#dae8fc;strokeColor=#6c8ebf;startArrow=none;" parent="1" edge="1">
                    <mxGeometry relative="1" as="geometry">
                        <mxPoint x="-590" y="525" as="sourcePoint"/>
                        <mxPoint x="-638" y="525" as="targetPoint"/>
                    </mxGeometry>
                </mxCell>
                <mxCell id="372" value="" style="group" parent="1" vertex="1" connectable="0">
                    <mxGeometry x="-225" y="491" width="20" height="30" as="geometry"/>
                </mxCell>
                <mxCell id="373" value="" style="group;strokeColor=default;" parent="372" vertex="1" connectable="0">
                    <mxGeometry x="2.3762932957027374" y="13.256293295702733" width="15.23741340859452" height="14.747413408594468" as="geometry"/>
                </mxCell>
                <mxCell id="374" value="" style="pointerEvents=1;verticalLabelPosition=bottom;shadow=0;dashed=0;align=center;html=1;verticalAlign=top;shape=mxgraph.electrical.resistors.resistor_2;rotation=45;strokeColor=default;" parent="373" vertex="1">
                    <mxGeometry x="5.763706704297263" y="3.3237067042972512" width="10.25" height="2.05" as="geometry"/>
                </mxCell>
                <mxCell id="375" value="" style="pointerEvents=1;verticalLabelPosition=bottom;shadow=0;dashed=0;align=center;html=1;verticalAlign=top;shape=mxgraph.electrical.resistors.resistor_2;rotation=-225;strokeColor=default;" parent="373" vertex="1">
                    <mxGeometry x="5.763706704297263" y="9.373706704297263" width="10.25" height="2.05" as="geometry"/>
                </mxCell>
                <mxCell id="376" value="" style="pointerEvents=1;verticalLabelPosition=bottom;shadow=0;dashed=0;align=center;html=1;verticalAlign=top;shape=mxgraph.electrical.resistors.resistor_2;rotation=-135;strokeColor=default;" parent="373" vertex="1">
                    <mxGeometry x="-0.7762932957027431" y="9.373706704297263" width="10.25" height="2.05" as="geometry"/>
                </mxCell>
                <mxCell id="377" value="" style="pointerEvents=1;verticalLabelPosition=bottom;shadow=0;dashed=0;align=center;html=1;verticalAlign=top;shape=mxgraph.electrical.resistors.resistor_2;rotation=-45;strokeColor=default;" parent="373" vertex="1">
                    <mxGeometry x="-0.7762932957027431" y="3.3237067042972512" width="10.25" height="2.05" as="geometry"/>
                </mxCell>
                <mxCell id="378" value="" style="endArrow=none;html=1;" parent="372" edge="1">
                    <mxGeometry width="50" height="50" relative="1" as="geometry">
                        <mxPoint x="10" y="13" as="sourcePoint"/>
                        <mxPoint x="10" as="targetPoint"/>
                    </mxGeometry>
                </mxCell>
                <mxCell id="379" value="" style="endArrow=none;html=1;strokeColor=default;" parent="372" edge="1">
                    <mxGeometry width="50" height="50" relative="1" as="geometry">
                        <mxPoint x="20" y="30" as="sourcePoint"/>
                        <mxPoint y="30" as="targetPoint"/>
                    </mxGeometry>
                </mxCell>
                <mxCell id="380" value="&lt;span style=&quot;&quot;&gt;FUEL-LC- A/B/C/D&lt;/span&gt;" style="text;strokeColor=none;align=center;fillColor=none;html=1;verticalAlign=middle;whiteSpace=wrap;rounded=0;rotation=0;" parent="1" vertex="1">
                    <mxGeometry x="-350" y="498" width="139.16" height="30" as="geometry"/>
                </mxCell>
                <mxCell id="381" value="" style="group" parent="1" vertex="1" connectable="0">
                    <mxGeometry x="-287.09000000000003" y="126.5" width="83.79000000000002" height="51.5" as="geometry"/>
                </mxCell>
                <mxCell id="392" value="" style="group" parent="381" vertex="1" connectable="0">
                    <mxGeometry y="-7" width="83.79" height="57.5" as="geometry"/>
                </mxCell>
                <mxCell id="320" value="" style="verticalLabelPosition=bottom;aspect=fixed;html=1;verticalAlign=top;fillColor=strokeColor;align=center;outlineConnect=0;shape=mxgraph.fluid_power.x11820;points=[[0.5,1,0]];rotation=0;" parent="392" vertex="1">
                    <mxGeometry x="30.57000000000005" y="32.5" width="16.64" height="25" as="geometry"/>
                </mxCell>
                <mxCell id="321" value="N2-G-014&lt;br&gt;[4000psig]" style="text;strokeColor=none;align=center;fillColor=none;html=1;verticalAlign=middle;whiteSpace=wrap;rounded=0;" parent="392" vertex="1">
                    <mxGeometry width="83.79" height="30" as="geometry"/>
                </mxCell>
                <mxCell id="382" value="" style="group" parent="1" vertex="1" connectable="0">
                    <mxGeometry x="-221.98000000000002" y="125.5" width="83.79000000000002" height="50.5" as="geometry"/>
                </mxCell>
                <mxCell id="322" value="" style="verticalLabelPosition=bottom;aspect=fixed;html=1;verticalAlign=top;fillColor=strokeColor;align=center;outlineConnect=0;shape=mxgraph.fluid_power.x11820;points=[[0.5,1,0]];rotation=0;" parent="382" vertex="1">
                    <mxGeometry x="33.57000000000005" y="25.5" width="16.64" height="25" as="geometry"/>
                </mxCell>
                <mxCell id="323" value="N2-G-016&lt;br&gt;[600psig]" style="text;strokeColor=none;align=center;fillColor=none;html=1;verticalAlign=middle;whiteSpace=wrap;rounded=0;" parent="382" vertex="1">
                    <mxGeometry x="1" y="-7" width="83.79" height="30" as="geometry"/>
                </mxCell>
                <mxCell id="384" value="" style="group" parent="1" vertex="1" connectable="0">
                    <mxGeometry x="-140.99" y="128" width="83.79" height="65" as="geometry"/>
                </mxCell>
                <mxCell id="355" value="N2-PRV-017&lt;br&gt;[200psid]" style="text;strokeColor=none;align=center;fillColor=none;html=1;verticalAlign=middle;whiteSpace=wrap;rounded=0;" parent="384" vertex="1">
                    <mxGeometry width="83.79" height="30" as="geometry"/>
                </mxCell>
                <mxCell id="352" value="" style="group" parent="384" vertex="1" connectable="0">
                    <mxGeometry x="31.899999999999977" y="35" width="20" height="30" as="geometry"/>
                </mxCell>
                <mxCell id="346" value="" style="verticalLabelPosition=bottom;align=center;html=1;verticalAlign=top;pointerEvents=1;dashed=0;shape=mxgraph.pid2valves.valve;valveType=angle;actuator=none;strokeColor=default;" parent="352" vertex="1">
                    <mxGeometry y="7.5" width="20" height="22.5" as="geometry"/>
                </mxCell>
                <mxCell id="347" value="" style="endArrow=none;html=1;strokeWidth=1;" parent="352" edge="1">
                    <mxGeometry width="50" height="50" relative="1" as="geometry">
                        <mxPoint x="9.946666666666639" y="15.75" as="sourcePoint"/>
                        <mxPoint x="10" as="targetPoint"/>
                    </mxGeometry>
                </mxCell>
                <mxCell id="349" value="" style="endArrow=none;html=1;strokeWidth=1;" parent="352" edge="1">
                    <mxGeometry width="50" height="50" relative="1" as="geometry">
                        <mxPoint x="6.666666666666666" y="8.25" as="sourcePoint"/>
                        <mxPoint x="13.333333333333332" y="0.75" as="targetPoint"/>
                    </mxGeometry>
                </mxCell>
                <mxCell id="350" value="" style="endArrow=none;html=1;strokeWidth=1;" parent="352" edge="1">
                    <mxGeometry width="50" height="50" relative="1" as="geometry">
                        <mxPoint x="6.666666666666666" y="11.25" as="sourcePoint"/>
                        <mxPoint x="13.333333333333332" y="3.75" as="targetPoint"/>
                    </mxGeometry>
                </mxCell>
                <mxCell id="351" value="" style="endArrow=none;html=1;strokeWidth=1;" parent="352" edge="1">
                    <mxGeometry width="50" height="50" relative="1" as="geometry">
                        <mxPoint x="6.666666666666666" y="15" as="sourcePoint"/>
                        <mxPoint x="13.333333333333332" y="7.5" as="targetPoint"/>
                    </mxGeometry>
                </mxCell>
                <mxCell id="386" value="" style="edgeStyle=none;rounded=0;orthogonalLoop=1;jettySize=auto;html=1;endArrow=none;endFill=0;fillColor=#d5e8d4;strokeColor=#82b366;strokeWidth=4;entryX=0.5;entryY=0;entryDx=0;entryDy=0;entryPerimeter=0;startSize=14;" parent="1" edge="1">
                    <mxGeometry relative="1" as="geometry">
                        <mxPoint x="-180" y="295" as="sourcePoint"/>
                        <mxPoint x="-180" y="206" as="targetPoint"/>
                    </mxGeometry>
                </mxCell>
                <mxCell id="387" value="" style="group" parent="1" vertex="1" connectable="0">
                    <mxGeometry x="-154.84000000000003" y="478" width="97.21" height="64" as="geometry"/>
                </mxCell>
                <mxCell id="356" value="" style="verticalLabelPosition=bottom;align=center;html=1;verticalAlign=top;pointerEvents=1;dashed=0;shape=mxgraph.pid2valves.valve;valveType=gate;actuator=man;rotation=0;points=[[0,0.7,0,0,0],[1,0.7,0,0,0]];" parent="387" vertex="1">
                    <mxGeometry x="30.840000000000003" y="24" width="40" height="40" as="geometry"/>
                </mxCell>
                <mxCell id="358" value="F-V-051" style="text;strokeColor=none;align=center;fillColor=none;html=1;verticalAlign=middle;whiteSpace=wrap;rounded=0;" parent="387" vertex="1">
                    <mxGeometry width="97.21" height="30" as="geometry"/>
                </mxCell>
                <mxCell id="388" value="" style="edgeStyle=none;rounded=1;html=1;strokeWidth=4;fontSize=2;endArrow=none;endFill=0;fillColor=#d5e8d4;strokeColor=#82b366;startArrow=none;" parent="1" edge="1">
                    <mxGeometry relative="1" as="geometry">
                        <mxPoint x="-128" y="265.9999999999998" as="sourcePoint"/>
                        <mxPoint x="-181.00000000000023" y="265.9999999999998" as="targetPoint"/>
                    </mxGeometry>
                </mxCell>
                <mxCell id="389" value="" style="group" parent="1" vertex="1" connectable="0">
                    <mxGeometry x="-158.84000000000003" y="196" width="97.21" height="64" as="geometry"/>
                </mxCell>
                <mxCell id="390" value="" style="verticalLabelPosition=bottom;align=center;html=1;verticalAlign=top;pointerEvents=1;dashed=0;shape=mxgraph.pid2valves.valve;valveType=gate;actuator=man;rotation=0;points=[[0,0.7,0,0,0],[1,0.7,0,0,0]];" parent="389" vertex="1">
                    <mxGeometry x="30.840000000000003" y="39" width="40" height="40" as="geometry"/>
                </mxCell>
                <mxCell id="391" value="N2-V-018" style="text;strokeColor=none;align=center;fillColor=none;html=1;verticalAlign=middle;whiteSpace=wrap;rounded=0;" parent="389" vertex="1">
                    <mxGeometry y="12" width="97.21" height="30" as="geometry"/>
                </mxCell>
                <object label="" Link="https://www.amazon.com/Transducer-Stainless-Transmitter-Automobile-Motorcycle/dp/B09FXBHW9F/ref=sr_1_1_sspa?crid=I56U2CZSYQOI&amp;dib=eyJ2IjoiMSJ9.n-x6NP6fRVQCLdvDoEGQZU5jr1BnBppf7ck5Kxb1VjKF7geuOmjYJpCJypBB3IMQT3g9X66w5meIUcK-hE-sWbXKPN1p5eeMNdkMLAOYCZSpS8xcByQJeTIVQpTEHLx9M3r92CMP1KTFLtl5MADEzMZDpyQ689lBj8HLiaWYTeywMpR5XDYSzz8HysV8Hx_o8nqoT3q5M8BgU32XpL25tTOEwry9TNkc0MXbb8qatWI.exW3O3owrNQlRYhIyMlfwwHj_nNS2-P6Iq3AgMe5ku0&amp;dib_tag=se&amp;keywords=pressure%2Btransducer%2B500%2Bpsi&amp;qid=1712515405&amp;sprefix=pressure%2Btransud%2Caps%2C344&amp;sr=8-1-spons&amp;sp_csd=d2lkZ2V0TmFtZT1zcF9hdGY&amp;th=1" id="395">
                    <mxCell style="group" parent="1" vertex="1" connectable="0">
                        <mxGeometry x="-343.59000000000003" y="321" width="114.5" height="30" as="geometry"/>
                    </mxCell>
                </object>
                <mxCell id="116" value="" style="group;rotation=-90;" parent="395" vertex="1" connectable="0">
                    <mxGeometry x="95" y="2" width="15" height="24" as="geometry"/>
                </mxCell>
                <mxCell id="117" value="" style="ellipse;whiteSpace=wrap;html=1;aspect=fixed;rotation=-90;" parent="116" vertex="1">
                    <mxGeometry x="-4" y="5" width="15" height="15" as="geometry"/>
                </mxCell>
                <mxCell id="118" value="" style="endArrow=none;html=1;" parent="116" edge="1">
                    <mxGeometry width="50" height="50" relative="1" as="geometry">
                        <mxPoint x="20" y="12" as="sourcePoint"/>
                        <mxPoint x="11" y="12" as="targetPoint"/>
                        <Array as="points"/>
                    </mxGeometry>
                </mxCell>
                <mxCell id="119" value="" style="endArrow=none;html=1;entryX=1;entryY=0;entryDx=0;entryDy=0;exitX=0;exitY=1;exitDx=0;exitDy=0;" parent="116" source="117" target="117" edge="1">
                    <mxGeometry width="50" height="50" relative="1" as="geometry">
                        <mxPoint x="46" y="54" as="sourcePoint"/>
                        <mxPoint x="-4" y="4" as="targetPoint"/>
                    </mxGeometry>
                </mxCell>
                <mxCell id="120" value="" style="endArrow=none;html=1;entryX=0;entryY=0;entryDx=0;entryDy=0;exitX=1;exitY=1;exitDx=0;exitDy=0;" parent="116" source="117" target="117" edge="1">
                    <mxGeometry width="50" height="50" relative="1" as="geometry">
                        <mxPoint x="18" y="7" as="sourcePoint"/>
                        <mxPoint x="8" y="-3" as="targetPoint"/>
                    </mxGeometry>
                </mxCell>
                <mxCell id="121" value="&lt;span style=&quot;&quot;&gt;N2-PT-019&lt;br&gt;[300psig]&lt;br&gt;&lt;/span&gt;" style="text;strokeColor=none;align=center;fillColor=none;html=1;verticalAlign=middle;whiteSpace=wrap;rounded=0;" parent="395" vertex="1">
                    <mxGeometry width="100" height="30" as="geometry"/>
                </mxCell>
                <mxCell id="294" value="" style="edgeStyle=none;rounded=0;orthogonalLoop=1;jettySize=auto;html=1;endArrow=none;endFill=0;fillColor=#dae8fc;strokeColor=#6c8ebf;strokeWidth=1;" parent="1" edge="1">
                    <mxGeometry relative="1" as="geometry">
                        <mxPoint x="-539.09" y="418" as="sourcePoint"/>
                        <mxPoint x="-589.09" y="418" as="targetPoint"/>
                    </mxGeometry>
                </mxCell>
                <mxCell id="300" value="" style="edgeStyle=none;rounded=0;orthogonalLoop=1;jettySize=auto;html=1;endArrow=none;endFill=0;fillColor=#dae8fc;strokeColor=#6c8ebf;strokeWidth=1;" parent="1" edge="1">
                    <mxGeometry relative="1" as="geometry">
                        <mxPoint x="-544.09" y="418" as="sourcePoint"/>
                        <mxPoint x="-544.09" y="352" as="targetPoint"/>
                    </mxGeometry>
                </mxCell>
                <object label="" Link="https://www.mcmaster.com/39095K64/" Price="30.44" IN_BOM="True" id="398">
                    <mxCell style="group" parent="1" vertex="1" connectable="0">
                        <mxGeometry x="-543.59" y="404" width="114.5" height="30" as="geometry"/>
                    </mxCell>
                </object>
                <mxCell id="301" value="" style="group;rotation=-270;" parent="398" vertex="1" connectable="0">
                    <mxGeometry x="4.5" y="2" width="15" height="24" as="geometry"/>
                </mxCell>
                <mxCell id="302" value="" style="ellipse;whiteSpace=wrap;html=1;aspect=fixed;rotation=-270;" parent="301" vertex="1">
                    <mxGeometry x="4" y="4" width="15" height="15" as="geometry"/>
                </mxCell>
                <mxCell id="303" value="" style="endArrow=none;html=1;" parent="301" edge="1">
                    <mxGeometry width="50" height="50" relative="1" as="geometry">
                        <mxPoint x="-5" y="12" as="sourcePoint"/>
                        <mxPoint x="4" y="12" as="targetPoint"/>
                        <Array as="points"/>
                    </mxGeometry>
                </mxCell>
                <mxCell id="304" value="T" style="text;strokeColor=none;align=center;fillColor=none;html=1;verticalAlign=middle;whiteSpace=wrap;rounded=0;textDirection=ltr;rotation=-270;" parent="301" vertex="1">
                    <mxGeometry x="9" y="7" width="7.5" height="10" as="geometry"/>
                </mxCell>
                <mxCell id="306" value="&lt;span style=&quot;&quot;&gt;OX-TC-094&lt;br&gt;[1/8&quot; K-Type]&lt;br&gt;&lt;/span&gt;" style="text;strokeColor=none;align=center;fillColor=none;html=1;verticalAlign=middle;whiteSpace=wrap;rounded=0;rotation=0;" parent="398" vertex="1">
                    <mxGeometry x="14.5" width="100" height="30" as="geometry"/>
                </mxCell>
                <object label="" Link="https://www.amazon.com/FUSCH-Transducer-Connector-Stainless-Transmitter/dp/B0CRQT7VFJ/ref=sr_1_1?dib=eyJ2IjoiMSJ9.k_Tu7ZgUMVdohd7r2kk4mpLodopGvJ6fTf_28j4pp-q3xcw0J_8znsSrK6sHz-fJJPx_tG1FEXkRm3Zaqm_GDCFbkkx-alNJEaXkwGbgSXU_Q7gi10q14E_ZUUbj5FTwzHGI5mbtMNCAHJI56CRfk6iV35UrJbLKs1wdKupZNidtcTnP1eSO4R4aEp2cw-neMXTmj0MNtHpqfbaZPZJ3wVjkiKf__UeScEH0t1aODLc.ypocCuxxWw9IlqK_TZ92tgHcBvmeiRS-poBr3hM-cQY&amp;dib_tag=se&amp;keywords=1000%2Bpsi%2Bpressure%2Bsensor&amp;qid=1712518589&amp;sr=8-1&amp;th=1" id="399">
                    <mxCell style="group" parent="1" vertex="1" connectable="0">
                        <mxGeometry x="-543.59" y="338" width="114.5" height="30" as="geometry"/>
                    </mxCell>
                </object>
                <mxCell id="295" value="" style="group;rotation=-270;" parent="399" vertex="1" connectable="0">
                    <mxGeometry x="4.5" y="3" width="15" height="24" as="geometry"/>
                </mxCell>
                <mxCell id="296" value="" style="ellipse;whiteSpace=wrap;html=1;aspect=fixed;rotation=-270;" parent="295" vertex="1">
                    <mxGeometry x="4" y="4" width="15" height="15" as="geometry"/>
                </mxCell>
                <mxCell id="297" value="" style="endArrow=none;html=1;" parent="295" edge="1">
                    <mxGeometry width="50" height="50" relative="1" as="geometry">
                        <mxPoint x="-5" y="12" as="sourcePoint"/>
                        <mxPoint x="4" y="12" as="targetPoint"/>
                        <Array as="points"/>
                    </mxGeometry>
                </mxCell>
                <mxCell id="298" value="" style="endArrow=none;html=1;entryX=1;entryY=0;entryDx=0;entryDy=0;exitX=0;exitY=1;exitDx=0;exitDy=0;" parent="295" source="296" target="296" edge="1">
                    <mxGeometry width="50" height="50" relative="1" as="geometry">
                        <mxPoint x="-31" y="-30" as="sourcePoint"/>
                        <mxPoint x="19" y="20" as="targetPoint"/>
                    </mxGeometry>
                </mxCell>
                <mxCell id="299" value="" style="endArrow=none;html=1;entryX=0;entryY=0;entryDx=0;entryDy=0;exitX=1;exitY=1;exitDx=0;exitDy=0;" parent="295" source="296" target="296" edge="1">
                    <mxGeometry width="50" height="50" relative="1" as="geometry">
                        <mxPoint x="-3" y="17" as="sourcePoint"/>
                        <mxPoint x="7" y="27" as="targetPoint"/>
                    </mxGeometry>
                </mxCell>
                <object label="&lt;span style=&quot;&quot;&gt;OX-PT-093&lt;br&gt;[1600psig]&lt;br&gt;&lt;/span&gt;" Link="https://www.ifm.com/us/en/product/PT2432?tab=documents" id="305">
                    <mxCell style="text;strokeColor=none;align=center;fillColor=none;html=1;verticalAlign=middle;whiteSpace=wrap;rounded=0;rotation=0;" parent="399" vertex="1">
                        <mxGeometry x="14.5" width="100" height="30" as="geometry"/>
                    </mxCell>
                </object>
                <object label="" Link="https://www.amazon.com/YZC-516C-Tension-Compression-Weight-batching/dp/B0BG9TH1S8/ref=sr_1_1_sspa?crid=1F6J41TDP9HPP&amp;dib=eyJ2IjoiMSJ9.fu6BPOZYtHH4H2ku_HpjVKNNX9cGFkmosaXT6CwDl9IcJQjRn7jNMMGrZw_ZFG71Q_QVzUtznyxP5mrXSP2doCUhuZhxU_JtuO0bL6b1QbX3fjaM3p_AnWW2_wiUHE3HdHbR0b-7R-DYb7nrEFjMFkIidjkn9kHwl706q-DAK5a9PQ-lqDr8q3X6QPQrCBNqdf3TgMgP10OdcYeT7nBn3SnoNLtIBvcym1qYwQxiIis.US76KOHotcOfM6rJwRUDtR08OeDXlU2mW0CXmkmRfv0&amp;dib_tag=se&amp;keywords=100kg+s+load+cell&amp;qid=1712515144&amp;sprefix=100kg+s+load+%2Caps%2C270&amp;sr=8-1-spons&amp;sp_csd=d2lkZ2V0TmFtZT1zcF9hdGY&amp;psc=1" id="402">
                    <mxCell style="group" parent="1" vertex="1" connectable="0">
                        <mxGeometry x="-447.69000000000005" y="648" width="100" height="46.74741340859441" as="geometry"/>
                    </mxCell>
                </object>
                <mxCell id="269" value="&lt;span style=&quot;&quot;&gt;CH-LC-A/B&lt;br&gt;[100kg]&lt;br&gt;&lt;/span&gt;" style="text;strokeColor=none;align=center;fillColor=none;html=1;verticalAlign=middle;whiteSpace=wrap;rounded=0;rotation=0;" parent="402" vertex="1">
                    <mxGeometry width="100" height="30" as="geometry"/>
                </mxCell>
                <mxCell id="261" value="" style="group;strokeColor=default;rotation=-180;" parent="402" vertex="1" connectable="0">
                    <mxGeometry x="40.60000000000002" y="32" width="15.23741340859452" height="14.747413408594468" as="geometry"/>
                </mxCell>
                <mxCell id="262" value="" style="pointerEvents=1;verticalLabelPosition=bottom;shadow=0;dashed=0;align=center;html=1;verticalAlign=top;shape=mxgraph.electrical.resistors.resistor_2;rotation=-135;" parent="261" vertex="1">
                    <mxGeometry x="-1" y="9" width="10.25" height="2.05" as="geometry"/>
                </mxCell>
                <mxCell id="263" value="" style="pointerEvents=1;verticalLabelPosition=bottom;shadow=0;dashed=0;align=center;html=1;verticalAlign=top;shape=mxgraph.electrical.resistors.resistor_2;rotation=-405;" parent="261" vertex="1">
                    <mxGeometry x="-1" y="3" width="10.25" height="2.05" as="geometry"/>
                </mxCell>
                <mxCell id="264" value="" style="pointerEvents=1;verticalLabelPosition=bottom;shadow=0;dashed=0;align=center;html=1;verticalAlign=top;shape=mxgraph.electrical.resistors.resistor_2;rotation=-315;" parent="261" vertex="1">
                    <mxGeometry x="6" y="3" width="10.25" height="2.05" as="geometry"/>
                </mxCell>
                <mxCell id="265" value="" style="pointerEvents=1;verticalLabelPosition=bottom;shadow=0;dashed=0;align=center;html=1;verticalAlign=top;shape=mxgraph.electrical.resistors.resistor_2;rotation=-225;" parent="261" vertex="1">
                    <mxGeometry x="6" y="9" width="10.25" height="2.05" as="geometry"/>
                </mxCell>
                <mxCell id="267" value="" style="endArrow=none;html=1;" parent="402" edge="1">
                    <mxGeometry width="50" height="50" relative="1" as="geometry">
                        <mxPoint x="38.60000000000002" y="30" as="sourcePoint"/>
                        <mxPoint x="58.60000000000002" y="30" as="targetPoint"/>
                    </mxGeometry>
                </mxCell>
                <object label="" Price="34.69" Link="https://www.amazon.com/FUSCH-Transducer-Connector-Stainless-Transmitter/dp/B0CRQWVDHT/ref=sr_1_1?dib=eyJ2IjoiMSJ9.k_Tu7ZgUMVdohd7r2kk4mpLodopGvJ6fTf_28j4pp-q3xcw0J_8znsSrK6sHz-fJJPx_tG1FEXkRm3Zaqm_GDCFbkkx-alNJEaXkwGbgSXU_Q7gi10q14E_ZUUbj5FTwzHGI5mbtMNCAHJI56CRfk6iV35UrJbLKs1wdKupZNidtcTnP1eSO4R4aEp2cw-neMXTmj0MNtHpqfbaZPZJ3wVjkiKf__UeScEH0t1aODLc.ypocCuxxWw9IlqK_TZ92tgHcBvmeiRS-poBr3hM-cQY&amp;dib_tag=se&amp;keywords=1000%2Bpsi%2Bpressure%2Bsensor&amp;qid=1712518589&amp;sr=8-1&amp;th=1" IN_BOM="True" id="408">
                    <mxCell style="group;rotation=-180;" parent="1" vertex="1" connectable="0">
                        <mxGeometry x="-618" y="764" width="114.5" height="30" as="geometry"/>
                    </mxCell>
                </object>
                <mxCell id="409" value="" style="group;rotation=-450;" parent="408" vertex="1" connectable="0">
                    <mxGeometry x="95" y="3" width="15" height="24" as="geometry"/>
                </mxCell>
                <mxCell id="410" value="" style="ellipse;whiteSpace=wrap;html=1;aspect=fixed;rotation=-450;" parent="409" vertex="1">
                    <mxGeometry x="-4" y="5" width="15" height="15" as="geometry"/>
                </mxCell>
                <mxCell id="411" value="" style="endArrow=none;html=1;" parent="409" edge="1">
                    <mxGeometry width="50" height="50" relative="1" as="geometry">
                        <mxPoint x="20" y="12" as="sourcePoint"/>
                        <mxPoint x="11" y="12" as="targetPoint"/>
                        <Array as="points"/>
                    </mxGeometry>
                </mxCell>
                <mxCell id="412" value="" style="endArrow=none;html=1;entryX=1;entryY=0;entryDx=0;entryDy=0;exitX=0;exitY=1;exitDx=0;exitDy=0;" parent="409" source="410" target="410" edge="1">
                    <mxGeometry width="50" height="50" relative="1" as="geometry">
                        <mxPoint x="46" y="54" as="sourcePoint"/>
                        <mxPoint x="-4" y="4" as="targetPoint"/>
                    </mxGeometry>
                </mxCell>
                <mxCell id="413" value="" style="endArrow=none;html=1;entryX=0;entryY=0;entryDx=0;entryDy=0;exitX=1;exitY=1;exitDx=0;exitDy=0;" parent="409" source="410" target="410" edge="1">
                    <mxGeometry width="50" height="50" relative="1" as="geometry">
                        <mxPoint x="18" y="7" as="sourcePoint"/>
                        <mxPoint x="8" y="-3" as="targetPoint"/>
                    </mxGeometry>
                </mxCell>
                <object label="&lt;span style=&quot;&quot;&gt;OX-PT-098&lt;br&gt;[1600psig]&lt;br&gt;&lt;/span&gt;" Link="https://www.ifm.com/us/en/product/PT2432?tab=documents" Price="167.50" IN_BOM="True" id="414">
                    <mxCell style="text;strokeColor=none;align=center;fillColor=none;html=1;verticalAlign=middle;whiteSpace=wrap;rounded=0;rotation=0;" parent="408" vertex="1">
                        <mxGeometry width="100" height="30" as="geometry"/>
                    </mxCell>
                </object>
                <object label="" Link="https://www.mcmaster.com/39095K64/" Price="30.44" IN_BOM="True" id="419">
                    <mxCell style="group;rotation=-180;" parent="1" vertex="1" connectable="0">
                        <mxGeometry x="-619" y="698" width="114.5" height="30" as="geometry"/>
                    </mxCell>
                </object>
                <mxCell id="420" value="" style="group;rotation=-450;" parent="419" vertex="1" connectable="0">
                    <mxGeometry x="95" y="4" width="15" height="24" as="geometry"/>
                </mxCell>
                <mxCell id="421" value="" style="ellipse;whiteSpace=wrap;html=1;aspect=fixed;rotation=-450;" parent="420" vertex="1">
                    <mxGeometry x="-4" y="5" width="15" height="15" as="geometry"/>
                </mxCell>
                <mxCell id="422" value="" style="endArrow=none;html=1;" parent="420" edge="1">
                    <mxGeometry width="50" height="50" relative="1" as="geometry">
                        <mxPoint x="20" y="12" as="sourcePoint"/>
                        <mxPoint x="11" y="12" as="targetPoint"/>
                        <Array as="points"/>
                    </mxGeometry>
                </mxCell>
                <mxCell id="423" value="T" style="text;strokeColor=none;align=center;fillColor=none;html=1;verticalAlign=middle;whiteSpace=wrap;rounded=0;textDirection=ltr;rotation=-450;" parent="420" vertex="1">
                    <mxGeometry x="-1" y="7" width="7.5" height="10" as="geometry"/>
                </mxCell>
                <mxCell id="424" value="&lt;span style=&quot;&quot;&gt;OX-TC-097&lt;br&gt;[1/8&quot; K-Type]&lt;br&gt;&lt;/span&gt;" style="text;strokeColor=none;align=center;fillColor=none;html=1;verticalAlign=middle;whiteSpace=wrap;rounded=0;rotation=0;" parent="419" vertex="1">
                    <mxGeometry width="100" height="30" as="geometry"/>
                </mxCell>
                <object label="" Link="https://www.mcmaster.com/39095K64/" Price="30.44" IN_BOM="True" id="425">
                    <mxCell style="group;rotation=0;" parent="1" vertex="1" connectable="0">
                        <mxGeometry x="-291" y="702" width="114.5" height="30" as="geometry"/>
                    </mxCell>
                </object>
                <mxCell id="426" value="" style="group;rotation=-270;" parent="425" vertex="1" connectable="0">
                    <mxGeometry x="5" y="2" width="15" height="24" as="geometry"/>
                </mxCell>
                <mxCell id="427" value="" style="ellipse;whiteSpace=wrap;html=1;aspect=fixed;rotation=-270;" parent="426" vertex="1">
                    <mxGeometry x="4" y="4" width="15" height="15" as="geometry"/>
                </mxCell>
                <mxCell id="428" value="" style="endArrow=none;html=1;" parent="426" edge="1">
                    <mxGeometry width="50" height="50" relative="1" as="geometry">
                        <mxPoint x="-5" y="12" as="sourcePoint"/>
                        <mxPoint x="4" y="12" as="targetPoint"/>
                        <Array as="points"/>
                    </mxGeometry>
                </mxCell>
                <mxCell id="429" value="T" style="text;strokeColor=none;align=center;fillColor=none;html=1;verticalAlign=middle;whiteSpace=wrap;rounded=0;textDirection=ltr;rotation=-270;" parent="426" vertex="1">
                    <mxGeometry x="9" y="7" width="7.5" height="10" as="geometry"/>
                </mxCell>
                <mxCell id="430" value="&lt;span style=&quot;&quot;&gt;F-TC-056&lt;br&gt;[1/8&quot; K-Type]&lt;br&gt;&lt;/span&gt;" style="text;strokeColor=none;align=center;fillColor=none;html=1;verticalAlign=middle;whiteSpace=wrap;rounded=0;rotation=0;" parent="425" vertex="1">
                    <mxGeometry x="15" width="100" height="30" as="geometry"/>
                </mxCell>
                <object label="" Link="https://www.amazon.com/Transducer-Stainless-Transmitter-Automobile-Motorcycle/dp/B09FXBHW9F/ref=sr_1_1_sspa?crid=I56U2CZSYQOI&amp;dib=eyJ2IjoiMSJ9.n-x6NP6fRVQCLdvDoEGQZU5jr1BnBppf7ck5Kxb1VjKF7geuOmjYJpCJypBB3IMQT3g9X66w5meIUcK-hE-sWbXKPN1p5eeMNdkMLAOYCZSpS8xcByQJeTIVQpTEHLx9M3r92CMP1KTFLtl5MADEzMZDpyQ689lBj8HLiaWYTeywMpR5XDYSzz8HysV8Hx_o8nqoT3q5M8BgU32XpL25tTOEwry9TNkc0MXbb8qatWI.exW3O3owrNQlRYhIyMlfwwHj_nNS2-P6Iq3AgMe5ku0&amp;dib_tag=se&amp;keywords=pressure%2Btransducer%2B500%2Bpsi&amp;qid=1712515405&amp;sprefix=pressure%2Btransud%2Caps%2C344&amp;sr=8-1-spons&amp;sp_csd=d2lkZ2V0TmFtZT1zcF9hdGY&amp;th=1" Pirce="25" IN_BOM="True" id="441">
                    <mxCell style="group;rotation=-180;" parent="1" vertex="1" connectable="0">
                        <mxGeometry x="-292" y="766" width="114.5" height="30" as="geometry"/>
                    </mxCell>
                </object>
                <mxCell id="442" value="" style="group;rotation=-270;" parent="441" vertex="1" connectable="0">
                    <mxGeometry x="5" y="4" width="15" height="24" as="geometry"/>
                </mxCell>
                <mxCell id="443" value="" style="ellipse;whiteSpace=wrap;html=1;aspect=fixed;rotation=-270;" parent="442" vertex="1">
                    <mxGeometry x="4" y="4" width="15" height="15" as="geometry"/>
                </mxCell>
                <mxCell id="444" value="" style="endArrow=none;html=1;" parent="442" edge="1">
                    <mxGeometry width="50" height="50" relative="1" as="geometry">
                        <mxPoint x="-5" y="12" as="sourcePoint"/>
                        <mxPoint x="4" y="12" as="targetPoint"/>
                        <Array as="points"/>
                    </mxGeometry>
                </mxCell>
                <mxCell id="445" value="" style="endArrow=none;html=1;entryX=1;entryY=0;entryDx=0;entryDy=0;exitX=0;exitY=1;exitDx=0;exitDy=0;" parent="442" source="443" target="443" edge="1">
                    <mxGeometry width="50" height="50" relative="1" as="geometry">
                        <mxPoint x="-31" y="-30" as="sourcePoint"/>
                        <mxPoint x="19" y="20" as="targetPoint"/>
                    </mxGeometry>
                </mxCell>
                <mxCell id="446" value="" style="endArrow=none;html=1;entryX=0;entryY=0;entryDx=0;entryDy=0;exitX=1;exitY=1;exitDx=0;exitDy=0;" parent="442" source="443" target="443" edge="1">
                    <mxGeometry width="50" height="50" relative="1" as="geometry">
                        <mxPoint x="-3" y="17" as="sourcePoint"/>
                        <mxPoint x="7" y="27" as="targetPoint"/>
                    </mxGeometry>
                </mxCell>
                <mxCell id="447" value="&lt;span style=&quot;&quot;&gt;F-PT-057&lt;br&gt;[300psig]&lt;br&gt;&lt;/span&gt;" style="text;strokeColor=none;align=center;fillColor=none;html=1;verticalAlign=middle;whiteSpace=wrap;rounded=0;rotation=0;" parent="441" vertex="1">
                    <mxGeometry x="15" width="100" height="30" as="geometry"/>
                </mxCell>
                <object label="" Link="https://www.amazon.com/Transducer-Stainless-Transmitter-Automobile-Motorcycle/dp/B09FXBHW9F/ref=sr_1_1_sspa?crid=I56U2CZSYQOI&amp;dib=eyJ2IjoiMSJ9.n-x6NP6fRVQCLdvDoEGQZU5jr1BnBppf7ck5Kxb1VjKF7geuOmjYJpCJypBB3IMQT3g9X66w5meIUcK-hE-sWbXKPN1p5eeMNdkMLAOYCZSpS8xcByQJeTIVQpTEHLx9M3r92CMP1KTFLtl5MADEzMZDpyQ689lBj8HLiaWYTeywMpR5XDYSzz8HysV8Hx_o8nqoT3q5M8BgU32XpL25tTOEwry9TNkc0MXbb8qatWI.exW3O3owrNQlRYhIyMlfwwHj_nNS2-P6Iq3AgMe5ku0&amp;dib_tag=se&amp;keywords=pressure%2Btransducer%2B500%2Bpsi&amp;qid=1712515405&amp;sprefix=pressure%2Btransud%2Caps%2C344&amp;sr=8-1-spons&amp;sp_csd=d2lkZ2V0TmFtZT1zcF9hdGY&amp;th=1" Pirce="25" IN_BOM="True" id="448">
                    <mxCell style="group;rotation=0;" parent="1" vertex="1" connectable="0">
                        <mxGeometry x="-534" y="842" width="114.5" height="30" as="geometry"/>
                    </mxCell>
                </object>
                <mxCell id="449" value="" style="group;rotation=-90;" parent="448" vertex="1" connectable="0">
                    <mxGeometry x="95" y="2" width="15" height="24" as="geometry"/>
                </mxCell>
                <mxCell id="450" value="" style="ellipse;whiteSpace=wrap;html=1;aspect=fixed;rotation=-90;" parent="449" vertex="1">
                    <mxGeometry x="-4" y="5" width="15" height="15" as="geometry"/>
                </mxCell>
                <mxCell id="451" value="" style="endArrow=none;html=1;" parent="449" edge="1">
                    <mxGeometry width="50" height="50" relative="1" as="geometry">
                        <mxPoint x="20" y="12" as="sourcePoint"/>
                        <mxPoint x="11" y="12" as="targetPoint"/>
                        <Array as="points"/>
                    </mxGeometry>
                </mxCell>
                <mxCell id="452" value="" style="endArrow=none;html=1;entryX=1;entryY=0;entryDx=0;entryDy=0;exitX=0;exitY=1;exitDx=0;exitDy=0;" parent="449" source="450" target="450" edge="1">
                    <mxGeometry width="50" height="50" relative="1" as="geometry">
                        <mxPoint x="46" y="54" as="sourcePoint"/>
                        <mxPoint x="-4" y="4" as="targetPoint"/>
                    </mxGeometry>
                </mxCell>
                <mxCell id="453" value="" style="endArrow=none;html=1;entryX=0;entryY=0;entryDx=0;entryDy=0;exitX=1;exitY=1;exitDx=0;exitDy=0;" parent="449" source="450" target="450" edge="1">
                    <mxGeometry width="50" height="50" relative="1" as="geometry">
                        <mxPoint x="18" y="7" as="sourcePoint"/>
                        <mxPoint x="8" y="-3" as="targetPoint"/>
                    </mxGeometry>
                </mxCell>
                <mxCell id="454" value="&lt;span style=&quot;&quot;&gt;CH-PT-100&lt;br&gt;[300psig]&lt;br&gt;&lt;/span&gt;" style="text;strokeColor=none;align=center;fillColor=none;html=1;verticalAlign=middle;whiteSpace=wrap;rounded=0;rotation=0;" parent="448" vertex="1">
                    <mxGeometry width="100" height="30" as="geometry"/>
                </mxCell>
                <mxCell id="237" value="" style="edgeStyle=none;rounded=0;orthogonalLoop=1;jettySize=auto;html=1;endArrow=none;endFill=0;fillColor=#ffe6cc;strokeColor=#d79b00;strokeWidth=1;" parent="1" edge="1">
                    <mxGeometry relative="1" as="geometry">
                        <mxPoint x="-419.09000000000003" y="830" as="sourcePoint"/>
                        <mxPoint x="-419.09000000000003" y="856" as="targetPoint"/>
                    </mxGeometry>
                </mxCell>
                <mxCell id="32" value="" style="endArrow=none;html=1;rounded=1;strokeWidth=1;fontSize=2;" parent="1" edge="1">
                    <mxGeometry width="50" height="50" relative="1" as="geometry">
                        <mxPoint x="-405.9153769511791" y="848" as="sourcePoint"/>
                        <mxPoint x="-419.2000000000001" y="831.3333333333334" as="targetPoint"/>
                    </mxGeometry>
                </mxCell>
                <mxCell id="33" value="" style="endArrow=none;html=1;rounded=1;strokeWidth=1;fontSize=2;" parent="1" edge="1">
                    <mxGeometry width="50" height="50" relative="1" as="geometry">
                        <mxPoint x="-419.2000000000001" y="898" as="sourcePoint"/>
                        <mxPoint x="-405.9153769511791" y="848" as="targetPoint"/>
                    </mxGeometry>
                </mxCell>
                <mxCell id="34" value="" style="endArrow=none;html=1;rounded=1;strokeWidth=1;fontSize=2;" parent="1" edge="1">
                    <mxGeometry width="50" height="50" relative="1" as="geometry">
                        <mxPoint x="-379.34613085353715" y="898" as="sourcePoint"/>
                        <mxPoint x="-392.6307539023581" y="848" as="targetPoint"/>
                    </mxGeometry>
                </mxCell>
                <mxCell id="35" value="" style="endArrow=none;html=1;rounded=1;strokeWidth=1;fontSize=2;" parent="1" edge="1">
                    <mxGeometry width="50" height="50" relative="1" as="geometry">
                        <mxPoint x="-392.6307539023581" y="848" as="sourcePoint"/>
                        <mxPoint x="-379.34613085353715" y="831.3333333333334" as="targetPoint"/>
                    </mxGeometry>
                </mxCell>
                <mxCell id="36" value="" style="endArrow=none;html=1;rounded=1;strokeWidth=1;fontSize=2;" parent="1" edge="1">
                    <mxGeometry width="50" height="50" relative="1" as="geometry">
                        <mxPoint x="-419.2000000000001" y="831.3333333333334" as="sourcePoint"/>
                        <mxPoint x="-419.05386914646306" y="798" as="targetPoint"/>
                    </mxGeometry>
                </mxCell>
                <mxCell id="41" value="" style="endArrow=none;html=1;rounded=1;strokeWidth=1;fontSize=2;" parent="1" edge="1">
                    <mxGeometry width="50" height="50" relative="1" as="geometry">
                        <mxPoint x="-419.05386914646306" y="798" as="sourcePoint"/>
                        <mxPoint x="-379.2000000000001" y="798" as="targetPoint"/>
                    </mxGeometry>
                </mxCell>
                <mxCell id="51" value="" style="endArrow=none;html=1;rounded=1;strokeWidth=1;fontSize=2;" parent="1" edge="1">
                    <mxGeometry width="50" height="50" relative="1" as="geometry">
                        <mxPoint x="-379.2000000000001" y="831.3333333333333" as="sourcePoint"/>
                        <mxPoint x="-379.05386914646306" y="797.9999999999999" as="targetPoint"/>
                    </mxGeometry>
                </mxCell>
                <object label="" Link="https://www.amazon.com/Temperature-K-type-Thermocouple-Kapton-insulation/dp/B074GDY7WZ?source=ps-sl-shoppingads-lpcontext&amp;ref_=fplfs&amp;psc=1&amp;smid=A2Z11XO0S3YBCN" Price="25.0" IN_BOM="True" id="455">
                    <mxCell style="group" parent="1" vertex="1" connectable="0">
                        <mxGeometry x="-392.59" y="833" width="161.59" height="30" as="geometry"/>
                    </mxCell>
                </object>
                <mxCell id="243" value="&lt;span style=&quot;&quot;&gt;CH-STC-101-A/B/C&lt;/span&gt;" style="text;strokeColor=none;align=center;fillColor=none;html=1;verticalAlign=middle;whiteSpace=wrap;rounded=0;rotation=0;" parent="455" vertex="1">
                    <mxGeometry x="18.01902877697842" width="143.5709712230216" height="30" as="geometry"/>
                </mxCell>
                <mxCell id="239" value="" style="group;rotation=90;" parent="455" vertex="1" connectable="0">
                    <mxGeometry x="5.231330935251799" y="3" width="17.437769784172662" height="24" as="geometry"/>
                </mxCell>
                <mxCell id="240" value="" style="ellipse;whiteSpace=wrap;html=1;aspect=fixed;rotation=90;" parent="239" vertex="1">
                    <mxGeometry x="5.812589928057554" y="5" width="15" height="15" as="geometry"/>
                </mxCell>
                <mxCell id="241" value="" style="endArrow=none;html=1;" parent="239" edge="1">
                    <mxGeometry width="50" height="50" relative="1" as="geometry">
                        <mxPoint x="-4.6500719424460435" y="12" as="sourcePoint"/>
                        <mxPoint x="5.812589928057554" y="12" as="targetPoint"/>
                        <Array as="points"/>
                    </mxGeometry>
                </mxCell>
                <mxCell id="242" value="T" style="text;strokeColor=none;align=center;fillColor=none;html=1;verticalAlign=middle;whiteSpace=wrap;rounded=0;textDirection=ltr;rotation=90;" parent="239" vertex="1">
                    <mxGeometry x="9.300143884892087" y="7" width="8.718884892086331" height="10" as="geometry"/>
                </mxCell>
                <object label="" Link="https://www.mcmaster.com/4112T23/" id="456">
                    <mxCell style="group" parent="1" vertex="1" connectable="0">
                        <mxGeometry x="-706.6" y="475" width="97.21000000000004" height="63" as="geometry"/>
                    </mxCell>
                </object>
                <mxCell id="361" value="OX-V-095" style="text;strokeColor=none;align=center;fillColor=none;html=1;verticalAlign=middle;whiteSpace=wrap;rounded=0;" parent="456" vertex="1">
                    <mxGeometry width="97.21" height="30" as="geometry"/>
                </mxCell>
                <mxCell id="359" value="" style="verticalLabelPosition=bottom;align=center;html=1;verticalAlign=top;pointerEvents=1;dashed=0;shape=mxgraph.pid2valves.valve;valveType=gate;actuator=man;rotation=0;points=[[0,0.7,0,0,0],[1,0.7,0,0,0]];" parent="456" vertex="1">
                    <mxGeometry x="28.600000000000023" y="23" width="40" height="40" as="geometry"/>
                </mxCell>
                <mxCell id="467" value="" style="group" parent="1" vertex="1" connectable="0">
                    <mxGeometry x="-692.3000000000001" y="569" width="132.04000000000008" height="40" as="geometry"/>
                </mxCell>
                <mxCell id="30" value="OX-V-096&lt;br&gt;[Cv = 4.5]" style="text;strokeColor=none;align=center;fillColor=none;html=1;verticalAlign=middle;whiteSpace=wrap;rounded=0;" parent="467" vertex="1">
                    <mxGeometry y="6" width="97.21" height="30" as="geometry"/>
                </mxCell>
                <mxCell id="18" value="" style="verticalLabelPosition=bottom;align=center;html=1;verticalAlign=top;pointerEvents=1;dashed=0;shape=mxgraph.pid2valves.valve;valveType=gate;actuator=solenoid;fontSize=2;rotation=90;points=[[0.3,0,0,0,0],[0.3,1,0,0,0]];strokeColor=#FFFFFF;fillColor=#141414;" parent="467" vertex="1">
                    <mxGeometry x="92.04000000000008" width="40" height="40" as="geometry"/>
                </mxCell>
                <mxCell id="469" value="" style="verticalLabelPosition=bottom;align=center;html=1;verticalAlign=top;pointerEvents=1;dashed=0;shape=mxgraph.pid2valves.valve;valveType=check;rounded=1;strokeWidth=2;fontSize=2;fillColor=none;gradientColor=default;rotation=90;" vertex="1" parent="1">
                    <mxGeometry x="-476.84000000000003" y="584" width="30" height="20" as="geometry"/>
                </mxCell>
            </root>
        </mxGraphModel>
    </diagram>
</mxfile>